<svg width="67" height="48" viewBox="0 0 67 48" fill="none" xmlns="http://www.w3.org/2000/svg">
<path d="M56.6905 3.98909C52.447 2.12958 47.8526 0.779934 43.0668 0.000137958C43.0248 -0.00112352 42.983 0.00627879 42.9445 0.0218246C42.9059 0.0373703 42.8714 0.060682 42.8434 0.090115C42.2691 1.07986 41.5991 2.36952 41.1524 3.35926C36.0762 2.63945 30.9139 2.63945 25.8377 3.35926C25.391 2.33953 24.721 1.07986 24.1148 0.090115C24.0829 0.0301307 23.9872 0.000137958 23.8915 0.000137958C19.1056 0.779934 14.5431 2.12958 10.2678 3.98909C10.2359 3.98909 10.2039 4.01909 10.172 4.04908C1.49371 16.2559 -0.899215 28.1328 0.281293 39.8897C0.281293 39.9497 0.313199 40.0097 0.37701 40.0397C6.12002 43.9986 11.6397 46.398 17.0956 47.9876C17.1913 48.0176 17.287 47.9876 17.3189 47.9276C18.5951 46.278 19.7437 44.5385 20.7328 42.709C20.7966 42.589 20.7328 42.469 20.6052 42.439C18.7866 41.7792 17.0637 40.9994 15.3727 40.0996C15.245 40.0397 15.245 39.8597 15.3408 39.7697C15.6917 39.5298 16.0427 39.2599 16.3936 39.0199C16.4575 38.9599 16.5532 38.9599 16.617 38.9899C27.5925 43.6987 39.4295 43.6987 50.2774 38.9899C50.3412 38.9599 50.437 38.9599 50.5008 39.0199C50.8517 39.2899 51.2027 39.5298 51.5536 39.7997C51.6813 39.8897 51.6813 40.0696 51.5217 40.1296C49.8626 41.0594 48.1078 41.8092 46.2892 42.469C46.1616 42.499 46.1297 42.649 46.1616 42.7389C47.1826 44.5685 48.3312 46.308 49.5755 47.9576C49.6712 47.9876 49.7669 48.0176 49.8627 47.9876C55.3504 46.398 60.8701 43.9986 66.6131 40.0397C66.6769 40.0097 66.7088 39.9497 66.7088 39.8897C68.1127 26.3032 64.3797 14.5163 56.8181 4.04908C56.7862 4.01909 56.7543 3.98909 56.6905 3.98909ZM22.3919 32.7216C19.1056 32.7216 16.3617 29.8723 16.3617 26.3632C16.3617 22.8542 19.0418 20.0049 22.3919 20.0049C25.7739 20.0049 28.454 22.8841 28.4221 26.3632C28.4221 29.8723 25.742 32.7216 22.3919 32.7216ZM44.6301 32.7216C41.3438 32.7216 38.6 29.8723 38.6 26.3632C38.6 22.8542 41.28 20.0049 44.6301 20.0049C48.0121 20.0049 50.6922 22.8841 50.6603 26.3632C50.6603 29.8723 48.0121 32.7216 44.6301 32.7216Z" fill="#F8F8F8"/>
</svg>
