<svg width="2000" height="407" viewBox="0 0 2000 407" fill="none" xmlns="http://www.w3.org/2000/svg">
<line x1="1621.45" y1="230.509" x2="2383.81" y2="96.0847" stroke="#C43076" stroke-width="3"/>
<line x1="-580.869" y1="2.01639" x2="190.302" y2="69.4851" stroke="#C43076" stroke-width="3"/>
<line x1="1588.37" y1="236.384" x2="1615.94" y2="231.523" stroke="#C43076" stroke-width="3"/>
<line x1="200.764" y1="70.5057" x2="228.658" y2="72.9461" stroke="#C43076" stroke-width="3"/>
<rect x="84.5559" y="210.033" width="18" height="15" transform="rotate(-38.9843 84.5559 210.033)" fill="#1C1C1C"/>
<circle cx="40.6335" cy="260" r="76.5" stroke="#C43076" stroke-width="3"/>
<rect x="100.988" y="228.045" width="18" height="15" transform="rotate(-24.1761 100.988 228.045)" fill="#1C1C1C"/>
<rect x="108.634" y="251.567" width="18" height="15" transform="rotate(-4.99417 108.634 251.567)" fill="#1C1C1C"/>
<path d="M-30.7528 94.5874L76.0041 208.179L-75.7472 243.837L-30.7528 94.5874Z" fill="#C43076"/>
<path d="M-30.7528 94.5874L76.0041 208.179L-75.7472 243.837L-30.7528 94.5874Z" fill="url(#paint0_radial_10_15)" fill-opacity="0.2"/>
<rect x="1769.91" y="16" width="255" height="255" transform="rotate(13.2102 1769.91 16)" fill="#C43076"/>
<rect x="1769.91" y="16" width="255" height="255" transform="rotate(13.2102 1769.91 16)" fill="url(#paint1_radial_10_15)" fill-opacity="0.3"/>
<circle cx="1918.63" cy="293" r="114" fill="#2B2A2A"/>
<defs>
<radialGradient id="paint0_radial_10_15" cx="0" cy="0" r="1" gradientUnits="userSpaceOnUse" gradientTransform="translate(-38.3665 218) rotate(-39.2894) scale(56.8507 61.7985)">
<stop/>
<stop offset="1" stop-opacity="0"/>
</radialGradient>
<radialGradient id="paint1_radial_10_15" cx="0" cy="0" r="1" gradientUnits="userSpaceOnUse" gradientTransform="translate(1881.6 40.1136) rotate(111.721) scale(230.532 448.36)">
<stop/>
<stop offset="0.352149" stop-opacity="0.647851"/>
<stop offset="0.59375" stop-opacity="0.28191"/>
<stop offset="1" stop-opacity="0"/>
</radialGradient>
</defs>
</svg>
