<svg width="1920" height="727" viewBox="0 0 1920 727" fill="none" xmlns="http://www.w3.org/2000/svg">
<path d="M124.393 237.017C124.393 271.406 96.5151 299.283 62.1261 299.283C27.7372 299.283 -0.140625 271.406 -0.140625 237.017C-0.140625 202.628 27.7372 174.75 62.1261 174.75C96.5151 174.75 124.393 202.628 124.393 237.017ZM6.08605 237.017C6.08605 267.967 31.1761 293.057 62.1261 293.057C93.0762 293.057 118.166 267.967 118.166 237.017C118.166 206.066 93.0762 180.976 62.1261 180.976C31.1761 180.976 6.08605 206.066 6.08605 237.017Z" fill="white"/>
<g filter="url(#filter0_f_223_4)">
<path d="M193.744 232.915C193.744 305.4 135.151 364.16 62.8721 364.16C-9.40658 364.16 -68 305.4 -68 232.915C-68 160.431 -9.40658 101.67 62.8721 101.67C135.151 101.67 193.744 160.431 193.744 232.915ZM-61.4564 232.915C-61.4564 301.775 -5.79265 357.598 62.8721 357.598C131.537 357.598 187.201 301.775 187.201 232.915C187.201 164.055 131.537 108.232 62.8721 108.232C-5.79265 108.232 -61.4564 164.055 -61.4564 232.915Z" fill="#FF7EBB"/>
</g>
<g filter="url(#filter1_f_223_4)">
<path d="M93.0733 232.915C93.0733 250.212 79.3848 264.235 62.4992 264.235C45.6135 264.235 31.925 250.212 31.925 232.915C31.925 215.618 45.6135 201.595 62.4992 201.595C79.3848 201.595 93.0733 215.618 93.0733 232.915ZM34.9825 232.915C34.9825 248.483 47.3021 261.103 62.4992 261.103C77.6962 261.103 90.0158 248.483 90.0158 232.915C90.0158 217.347 77.6962 204.727 62.4992 204.727C47.3021 204.727 34.9825 217.347 34.9825 232.915Z" fill="white"/>
</g>
<line x1="71.4573" y1="220.238" x2="71.4573" y2="253.621" stroke="white" stroke-width="3"/>
<line x1="55.0515" y1="220.238" x2="55.0515" y2="238.837" stroke="white" stroke-width="3"/>
<line y1="-1.5" x2="18.6427" y2="-1.5" transform="matrix(1 0 -7.4765e-05 1 53.5505 239.017)" stroke="white" stroke-width="3"/>
<path d="M301.872 477.881C301.872 512.682 273.994 540.893 239.605 540.893C205.216 540.893 177.338 512.682 177.338 477.881C177.338 443.08 205.216 414.868 239.605 414.868C273.994 414.868 301.872 443.08 301.872 477.881ZM183.565 477.881C183.565 509.202 208.655 534.592 239.605 534.592C270.555 534.592 295.645 509.202 295.645 477.881C295.645 446.56 270.555 421.17 239.605 421.17C208.655 421.17 183.565 446.56 183.565 477.881Z" fill="white"/>
<g filter="url(#filter2_f_223_4)">
<path d="M410 477.881C410 574.046 332.209 652.004 236.25 652.004C140.29 652.004 62.4993 574.046 62.4993 477.881C62.4993 381.715 140.29 303.758 236.25 303.758C332.209 303.758 410 381.715 410 477.881ZM64.2368 477.881C64.2368 573.085 141.25 650.263 236.25 650.263C331.25 650.263 408.263 573.085 408.263 477.881C408.263 382.677 331.25 305.499 236.25 305.499C141.25 305.499 64.2368 382.677 64.2368 477.881Z" fill="#FF7EBB"/>
</g>
<g filter="url(#filter3_f_223_4)">
<path d="M270.552 473.779C270.552 490.665 256.697 504.354 239.605 504.354C222.514 504.354 208.658 490.665 208.658 473.779C208.658 456.894 222.514 443.205 239.605 443.205C256.697 443.205 270.552 456.894 270.552 473.779ZM211.753 473.779C211.753 488.976 224.223 501.296 239.605 501.296C254.988 501.296 267.458 488.976 267.458 473.779C267.458 458.582 254.988 446.263 239.605 446.263C224.223 446.263 211.753 458.582 211.753 473.779Z" fill="white"/>
</g>
<line y1="-1.5" x2="19.0249" y2="-1.5" transform="matrix(0 -1 1 7.4765e-05 248.928 494.296)" stroke="white" stroke-width="3"/>
<line y1="-1.5" x2="19.3885" y2="-1.5" transform="matrix(1 0 -7.4765e-05 1 229.538 463.329)" stroke="white" stroke-width="3"/>
<path d="M231.404 478.636V459.611" stroke="white" stroke-width="3"/>
<line y1="-1.5" x2="19.3885" y2="-1.5" transform="matrix(1 0 -7.4765e-05 1 229.539 494.66)" stroke="white" stroke-width="3"/>
<line y1="-1.5" x2="19.3885" y2="-1.5" transform="matrix(1 0 -7.4765e-05 1 229.539 479)" stroke="white" stroke-width="3"/>
<g filter="url(#filter4_f_223_4)">
<line y1="-0.5" x2="165.941" y2="-0.5" transform="matrix(0.58184 0.813303 -0.81183 0.583893 97.0408 291.95)" stroke="white"/>
</g>
<g filter="url(#filter5_f_223_4)">
<line x1="124.072" y1="232.505" x2="338.072" y2="263.505" stroke="white"/>
</g>
<path d="M1709.08 49.5385C1709.08 76.8978 1686.9 99.0769 1659.54 99.0769C1632.18 99.0769 1610 76.8978 1610 49.5385C1610 22.1791 1632.18 0 1659.54 0C1686.9 0 1709.08 22.1791 1709.08 49.5385ZM1614.95 49.5385C1614.95 74.1619 1634.92 94.1231 1659.54 94.1231C1684.16 94.1231 1704.12 74.1619 1704.12 49.5385C1704.12 24.9151 1684.16 4.95385 1659.54 4.95385C1634.92 4.95385 1614.95 24.9151 1614.95 49.5385Z" fill="white" fill-opacity="0.3"/>
<line y1="-1.5" x2="15.1358" y2="-1.5" transform="matrix(0.999903 -0.013912 0.0141168 0.9999 1651.51 38.415)" stroke="white" stroke-width="3"/>
<line y1="-1.5" x2="15.1358" y2="-1.5" transform="matrix(0.999901 -0.0140514 0.0139767 0.999902 1652.11 50.8735)" stroke="white" stroke-width="3"/>
<line y1="-1.5" x2="15.1358" y2="-1.5" transform="matrix(0.999901 -0.0140514 0.0139767 0.999902 1652.7 63.3323)" stroke="white" stroke-width="3"/>
<line y1="-1.5" x2="15.136" y2="-1.5" transform="matrix(0.0206086 0.999788 -0.999783 0.020827 1663.97 35.2358)" stroke="white" stroke-width="3"/>
<line y1="-1.5" x2="15.136" y2="-1.5" transform="matrix(0.0207549 0.999784 -0.999786 0.0206801 1652.11 48.2878)" stroke="white" stroke-width="3"/>
<path d="M1778.03 209.207C1763.91 224.932 1739.54 226.436 1723.6 212.566C1707.65 198.696 1706.17 174.705 1720.29 158.98C1734.41 143.256 1758.78 141.752 1774.72 155.622C1790.67 169.491 1792.15 193.482 1778.03 209.207ZM1723.18 161.492C1710.47 175.644 1711.8 197.236 1726.15 209.719C1740.5 222.201 1762.44 220.848 1775.14 206.696C1787.85 192.543 1786.52 170.951 1772.17 158.469C1757.82 145.986 1735.88 147.34 1723.18 161.492Z" fill="white" fill-opacity="0.3"/>
<path d="M1748.81 173.777L1748.84 194.028" stroke="white" stroke-width="3"/>
<g filter="url(#filter6_f_223_4)">
<line x1="1774.51" y1="148.089" x2="1828" y2="99.6675" stroke="white" stroke-width="0.5"/>
</g>
<rect x="1737.75" y="133.282" width="294.597" height="72.5284" rx="36.2642" transform="rotate(33.7036 1737.75 133.282)" stroke="white" stroke-opacity="0.18" stroke-width="4"/>
<rect x="1612" y="2" width="348.577" height="95.0769" rx="47.5385" stroke="white" stroke-opacity="0.18" stroke-width="4"/>
<g filter="url(#filter7_f_223_4)">
<line x1="1777.19" y1="597.042" x2="1625.14" y2="613.571" stroke="white"/>
</g>
<g filter="url(#filter8_f_223_4)">
<line x1="1706.47" y1="506.996" x2="1612.48" y2="586.784" stroke="white"/>
</g>
<g filter="url(#filter9_f_223_4)">
<line x1="1708.96" y1="460.247" x2="1490.96" y2="427.247" stroke="white" stroke-width="0.5"/>
</g>
<path d="M1705.83 484.542C1705.83 457.467 1727.78 435.519 1754.85 435.519C1781.93 435.519 1803.87 457.467 1803.87 484.542C1803.87 511.616 1781.93 533.564 1754.85 533.564C1727.78 533.564 1705.83 511.616 1705.83 484.542ZM1798.97 484.542C1798.97 460.175 1779.22 440.422 1754.85 440.422C1730.48 440.422 1710.73 460.175 1710.73 484.542C1710.73 508.909 1730.48 528.662 1754.85 528.662C1779.22 528.662 1798.97 508.909 1798.97 484.542Z" fill="white" fill-opacity="0.54"/>
<g filter="url(#filter10_f_223_4)">
<path d="M1592.91 484.204C1592.91 394.578 1665.56 321.923 1755.19 321.923C1844.81 321.923 1917.47 394.578 1917.47 484.204C1917.47 573.829 1844.81 646.484 1755.19 646.484C1665.56 646.484 1592.91 573.829 1592.91 484.204ZM1915.85 484.204C1915.85 395.475 1843.92 323.546 1755.19 323.546C1666.46 323.546 1594.53 395.475 1594.53 484.204C1594.53 572.932 1666.46 644.861 1755.19 644.861C1843.92 644.861 1915.85 572.932 1915.85 484.204Z" fill="#FF7EBA"/>
</g>
<line y1="-1.5" x2="15.0387" y2="-1.5" transform="matrix(0.999783 -0.0208496 0.0219197 0.99976 1747.01 474.555)" stroke="white" stroke-width="3"/>
<line y1="-1.5" x2="15.0387" y2="-1.5" transform="matrix(0.999781 -0.0209298 0.0218336 0.999762 1747.69 486.505)" stroke="white" stroke-width="3"/>
<line y1="-1.5" x2="15.0387" y2="-1.5" transform="matrix(0.999781 -0.0209298 0.0218336 0.999762 1748.37 498.454)" stroke="white" stroke-width="3"/>
<line x1="1760.66" y1="470.69" x2="1761.53" y2="497.732" stroke="white" stroke-width="3"/>
<g filter="url(#filter11_f_223_4)">
<circle cx="1578.65" cy="627.273" r="17.9185" transform="rotate(180 1578.65 627.273)" fill="#FF7EBB"/>
</g>
<g filter="url(#filter12_f_223_4)">
<path d="M1491.09 628.963C1491.09 580.416 1530.44 541.061 1578.99 541.061C1627.54 541.061 1666.89 580.416 1666.89 628.963C1666.89 677.51 1627.54 716.865 1578.99 716.865C1530.44 716.865 1491.09 677.51 1491.09 628.963ZM1662.5 628.963C1662.5 582.843 1625.11 545.456 1578.99 545.456C1532.87 545.456 1495.48 582.843 1495.48 628.963C1495.48 675.083 1532.87 712.47 1578.99 712.47C1625.11 712.47 1662.5 675.083 1662.5 628.963Z" fill="#FF7EBA"/>
</g>
<path d="M1533.01 628.963C1533.01 603.569 1553.6 582.984 1578.99 582.984C1604.39 582.984 1624.97 603.569 1624.97 628.963C1624.97 654.357 1604.39 674.943 1578.99 674.943C1553.6 674.943 1533.01 654.357 1533.01 628.963ZM1620.37 628.963C1620.37 606.109 1601.85 587.582 1578.99 587.582C1556.14 587.582 1537.61 606.109 1537.61 628.963C1537.61 651.818 1556.14 670.345 1578.99 670.345C1601.85 670.345 1620.37 651.818 1620.37 628.963Z" fill="white"/>
<line y1="-1.5" x2="15.0387" y2="-1.5" transform="matrix(-0.999909 0.0134891 -0.0145594 -0.999894 1587.11 639.436)" stroke="white" stroke-width="3"/>
<line y1="-1.5" x2="15.0387" y2="-1.5" transform="matrix(-0.999908 0.0135693 -0.0144732 -0.999895 1586.52 627.482)" stroke="white" stroke-width="3"/>
<line y1="-1.5" x2="15.0387" y2="-1.5" transform="matrix(-0.999908 0.0135693 -0.0144732 -0.999895 1585.93 615.528)" stroke="white" stroke-width="3"/>
<line y1="-1.5" x2="14.523" y2="-1.5" transform="matrix(-0.0213405 -0.999772 0.999798 -0.0201126 1574.73 642.487)" stroke="white" stroke-width="3"/>
<line y1="-1.5" x2="14.523" y2="-1.5" transform="matrix(-0.0214921 -0.999769 0.999801 -0.0199708 1586.52 629.963)" stroke="white" stroke-width="3"/>
<g filter="url(#filter13_f_223_4)">
<circle cx="1843.36" cy="585.267" r="17.9185" transform="rotate(180 1843.36 585.267)" fill="#FF7EBB"/>
</g>
<path d="M1794.34 585.267C1794.34 558.193 1816.29 536.245 1843.36 536.245C1870.44 536.245 1892.39 558.193 1892.39 585.267C1892.39 612.341 1870.44 634.289 1843.36 634.289C1816.29 634.289 1794.34 612.341 1794.34 585.267ZM1887.48 585.267C1887.48 560.9 1867.73 541.147 1843.36 541.147C1819 541.147 1799.24 560.9 1799.24 585.267C1799.24 609.634 1819 629.387 1843.36 629.387C1867.73 629.387 1887.48 609.634 1887.48 585.267Z" fill="white"/>
<path d="M1784.2 585.267C1784.2 552.591 1810.69 526.102 1843.36 526.102C1876.04 526.102 1902.53 552.591 1902.53 585.267C1902.53 617.942 1876.04 644.431 1843.36 644.431C1810.69 644.431 1784.2 617.942 1784.2 585.267ZM1896.61 585.267C1896.61 555.858 1872.77 532.018 1843.36 532.018C1813.96 532.018 1790.12 555.858 1790.12 585.267C1790.12 614.675 1813.96 638.515 1843.36 638.515C1872.77 638.515 1896.61 614.675 1896.61 585.267Z" fill="#FF7EBB"/>
<path d="M1843.7 603.185L1843.7 570.082" stroke="white" stroke-width="3"/>
<defs>
<filter id="filter0_f_223_4" x="-91" y="78.6702" width="307.744" height="308.49" filterUnits="userSpaceOnUse" color-interpolation-filters="sRGB">
<feFlood flood-opacity="0" result="BackgroundImageFix"/>
<feBlend mode="normal" in="SourceGraphic" in2="BackgroundImageFix" result="shape"/>
<feGaussianBlur stdDeviation="11.5" result="effect1_foregroundBlur_223_4"/>
</filter>
<filter id="filter1_f_223_4" x="-28.075" y="141.595" width="181.148" height="182.64" filterUnits="userSpaceOnUse" color-interpolation-filters="sRGB">
<feFlood flood-opacity="0" result="BackgroundImageFix"/>
<feBlend mode="normal" in="SourceGraphic" in2="BackgroundImageFix" result="shape"/>
<feGaussianBlur stdDeviation="30" result="effect1_foregroundBlur_223_4"/>
</filter>
<filter id="filter2_f_223_4" x="7.49927" y="248.758" width="457.501" height="458.247" filterUnits="userSpaceOnUse" color-interpolation-filters="sRGB">
<feFlood flood-opacity="0" result="BackgroundImageFix"/>
<feBlend mode="normal" in="SourceGraphic" in2="BackgroundImageFix" result="shape"/>
<feGaussianBlur stdDeviation="27.5" result="effect1_foregroundBlur_223_4"/>
</filter>
<filter id="filter3_f_223_4" x="148.658" y="383.205" width="181.894" height="181.148" filterUnits="userSpaceOnUse" color-interpolation-filters="sRGB">
<feFlood flood-opacity="0" result="BackgroundImageFix"/>
<feBlend mode="normal" in="SourceGraphic" in2="BackgroundImageFix" result="shape"/>
<feGaussianBlur stdDeviation="30" result="effect1_foregroundBlur_223_4"/>
</filter>
<filter id="filter4_f_223_4" x="93.0408" y="287.366" width="105.363" height="143.544" filterUnits="userSpaceOnUse" color-interpolation-filters="sRGB">
<feFlood flood-opacity="0" result="BackgroundImageFix"/>
<feBlend mode="normal" in="SourceGraphic" in2="BackgroundImageFix" result="shape"/>
<feGaussianBlur stdDeviation="2" result="effect1_foregroundBlur_223_4"/>
</filter>
<filter id="filter5_f_223_4" x="120" y="228.01" width="222.143" height="39.9897" filterUnits="userSpaceOnUse" color-interpolation-filters="sRGB">
<feFlood flood-opacity="0" result="BackgroundImageFix"/>
<feBlend mode="normal" in="SourceGraphic" in2="BackgroundImageFix" result="shape"/>
<feGaussianBlur stdDeviation="2" result="effect1_foregroundBlur_223_4"/>
</filter>
<filter id="filter6_f_223_4" x="1769.34" y="94.4822" width="63.8293" height="58.7917" filterUnits="userSpaceOnUse" color-interpolation-filters="sRGB">
<feFlood flood-opacity="0" result="BackgroundImageFix"/>
<feBlend mode="normal" in="SourceGraphic" in2="BackgroundImageFix" result="shape"/>
<feGaussianBlur stdDeviation="2.5" result="effect1_foregroundBlur_223_4"/>
</filter>
<filter id="filter7_f_223_4" x="1621.09" y="592.545" width="160.159" height="25.5229" filterUnits="userSpaceOnUse" color-interpolation-filters="sRGB">
<feFlood flood-opacity="0" result="BackgroundImageFix"/>
<feBlend mode="normal" in="SourceGraphic" in2="BackgroundImageFix" result="shape"/>
<feGaussianBlur stdDeviation="2" result="effect1_foregroundBlur_223_4"/>
</filter>
<filter id="filter8_f_223_4" x="1608.16" y="502.615" width="102.635" height="88.5503" filterUnits="userSpaceOnUse" color-interpolation-filters="sRGB">
<feFlood flood-opacity="0" result="BackgroundImageFix"/>
<feBlend mode="normal" in="SourceGraphic" in2="BackgroundImageFix" result="shape"/>
<feGaussianBlur stdDeviation="2" result="effect1_foregroundBlur_223_4"/>
</filter>
<filter id="filter9_f_223_4" x="1485.93" y="422" width="228.075" height="43.4944" filterUnits="userSpaceOnUse" color-interpolation-filters="sRGB">
<feFlood flood-opacity="0" result="BackgroundImageFix"/>
<feBlend mode="normal" in="SourceGraphic" in2="BackgroundImageFix" result="shape"/>
<feGaussianBlur stdDeviation="2.5" result="effect1_foregroundBlur_223_4"/>
</filter>
<filter id="filter10_f_223_4" x="1582.91" y="311.923" width="344.561" height="344.561" filterUnits="userSpaceOnUse" color-interpolation-filters="sRGB">
<feFlood flood-opacity="0" result="BackgroundImageFix"/>
<feBlend mode="normal" in="SourceGraphic" in2="BackgroundImageFix" result="shape"/>
<feGaussianBlur stdDeviation="5" result="effect1_foregroundBlur_223_4"/>
</filter>
<filter id="filter11_f_223_4" x="1485.74" y="534.354" width="185.837" height="185.837" filterUnits="userSpaceOnUse" color-interpolation-filters="sRGB">
<feFlood flood-opacity="0" result="BackgroundImageFix"/>
<feBlend mode="normal" in="SourceGraphic" in2="BackgroundImageFix" result="shape"/>
<feGaussianBlur stdDeviation="37.5" result="effect1_foregroundBlur_223_4"/>
</filter>
<filter id="filter12_f_223_4" x="1481.09" y="531.061" width="195.804" height="195.804" filterUnits="userSpaceOnUse" color-interpolation-filters="sRGB">
<feFlood flood-opacity="0" result="BackgroundImageFix"/>
<feBlend mode="normal" in="SourceGraphic" in2="BackgroundImageFix" result="shape"/>
<feGaussianBlur stdDeviation="5" result="effect1_foregroundBlur_223_4"/>
</filter>
<filter id="filter13_f_223_4" x="1764.45" y="506.348" width="157.837" height="157.837" filterUnits="userSpaceOnUse" color-interpolation-filters="sRGB">
<feFlood flood-opacity="0" result="BackgroundImageFix"/>
<feBlend mode="normal" in="SourceGraphic" in2="BackgroundImageFix" result="shape"/>
<feGaussianBlur stdDeviation="30.5" result="effect1_foregroundBlur_223_4"/>
</filter>
</defs>
</svg>
