<svg width="1920" height="632" viewBox="0 0 1920 632" fill="none" xmlns="http://www.w3.org/2000/svg">
<path d="M115.219 152.595C115.219 181.948 91.4233 205.743 62.0703 205.743C32.7174 205.743 8.92212 181.948 8.92212 152.595C8.92212 123.242 32.7174 99.4465 62.0703 99.4465C91.4233 99.4465 115.219 123.242 115.219 152.595ZM14.2369 152.595C14.2369 179.012 35.6527 200.428 62.0703 200.428C88.488 200.428 109.904 179.012 109.904 152.595C109.904 126.177 88.488 104.761 62.0703 104.761C35.6527 104.761 14.2369 126.177 14.2369 152.595Z" fill="white"/>
<g filter="url(#filter0_f_223_4)">
<path d="M174.413 149.094C174.413 210.964 124.401 261.119 62.7067 261.119C1.0128 261.119 -49 210.964 -49 149.094C-49 87.2241 1.0128 37.0688 62.7067 37.0688C124.401 37.0688 174.413 87.2241 174.413 149.094ZM-43.4147 149.094C-43.4147 207.87 4.0975 255.518 62.7067 255.518C121.316 255.518 168.828 207.87 168.828 149.094C168.828 90.3176 121.316 42.6701 62.7067 42.6701C4.0975 42.6701 -43.4147 90.3176 -43.4147 149.094Z" fill="#FF7EBB"/>
</g>
<g filter="url(#filter1_f_223_4)">
<path d="M88.4852 149.094C88.4852 163.858 76.8013 175.827 62.3885 175.827C47.9757 175.827 36.2917 163.858 36.2917 149.094C36.2917 134.329 47.9757 122.361 62.3885 122.361C76.8013 122.361 88.4852 134.329 88.4852 149.094ZM38.9014 149.094C38.9014 162.382 49.4169 173.154 62.3885 173.154C75.36 173.154 85.8755 162.382 85.8755 149.094C85.8755 135.806 75.36 125.034 62.3885 125.034C49.4169 125.034 38.9014 135.806 38.9014 149.094Z" fill="white"/>
</g>
<path d="M266.707 358.186C266.707 387.89 242.911 411.971 213.558 411.971C184.205 411.971 160.41 387.89 160.41 358.186C160.41 328.481 184.205 304.401 213.558 304.401C242.911 304.401 266.707 328.481 266.707 358.186ZM165.725 358.186C165.725 384.92 187.141 406.592 213.558 406.592C239.976 406.592 261.392 384.92 261.392 358.186C261.392 331.452 239.976 309.78 213.558 309.78C187.141 309.78 165.725 331.452 165.725 358.186Z" fill="white"/>
<g filter="url(#filter2_f_223_4)">
<path d="M359 358.186C359 440.268 292.601 506.81 210.694 506.81C128.787 506.81 62.3884 440.268 62.3884 358.186C62.3884 276.103 128.787 209.562 210.694 209.562C292.601 209.562 359 276.103 359 358.186ZM63.8715 358.186C63.8715 439.448 129.606 505.323 210.694 505.323C291.782 505.323 357.517 439.448 357.517 358.186C357.517 276.924 291.782 211.048 210.694 211.048C129.606 211.048 63.8715 276.924 63.8715 358.186Z" fill="#FF7EBB"/>
</g>
<g filter="url(#filter3_f_223_4)">
<path d="M239.974 354.685C239.974 369.098 228.147 380.782 213.559 380.782C198.97 380.782 187.144 369.098 187.144 354.685C187.144 340.272 198.97 328.588 213.559 328.588C228.147 328.588 239.974 340.272 239.974 354.685ZM189.785 354.685C189.785 367.657 200.429 378.172 213.559 378.172C226.688 378.172 237.332 367.657 237.332 354.685C237.332 341.714 226.688 331.198 213.559 331.198C200.429 331.198 189.785 341.714 189.785 354.685Z" fill="white"/>
</g>
<g filter="url(#filter4_f_223_4)">
<line y1="-0.5" x2="141.64" y2="-0.5" transform="matrix(0.58184 0.813303 -0.81183 0.583893 91.8718 199.484)" stroke="white"/>
</g>
<g filter="url(#filter5_f_223_4)">
<line x1="121.985" y1="164.796" x2="278.072" y2="187.505" stroke="white"/>
</g>
<line x1="70.2544" y1="138.273" x2="70.2544" y2="166.767" stroke="white" stroke-width="3"/>
<line x1="56.2512" y1="138.273" x2="56.2512" y2="154.148" stroke="white" stroke-width="3"/>
<line y1="-1.5" x2="15.9126" y2="-1.5" transform="matrix(1 0 -7.4765e-05 1 54.7505 154.302)" stroke="white" stroke-width="3"/>
<line y1="-1.5" x2="16.2388" y2="-1.5" transform="matrix(0 -1 1 7.4765e-05 221.515 372.197)" stroke="white" stroke-width="3"/>
<line y1="-1.5" x2="16.5491" y2="-1.5" transform="matrix(1 0 -7.4765e-05 1 204.966 345.765)" stroke="white" stroke-width="3"/>
<path d="M206.558 358.83V342.592" stroke="white" stroke-width="3"/>
<line y1="-1.5" x2="16.5491" y2="-1.5" transform="matrix(1 0 -7.4765e-05 1 204.967 372.507)" stroke="white" stroke-width="3"/>
<line y1="-1.5" x2="16.5491" y2="-1.5" transform="matrix(1 0 -7.4765e-05 1 204.967 359.141)" stroke="white" stroke-width="3"/>
<path d="M1742.11 42.0533C1742.11 65.2787 1723.28 84.1066 1700.05 84.1066C1676.83 84.1066 1658 65.2787 1658 42.0533C1658 18.8279 1676.83 0 1700.05 0C1723.28 0 1742.11 18.8279 1742.11 42.0533ZM1662.21 42.0533C1662.21 62.9561 1679.15 79.9012 1700.05 79.9012C1720.96 79.9012 1737.9 62.9561 1737.9 42.0533C1737.9 21.1504 1720.96 4.20533 1700.05 4.20533C1679.15 4.20533 1662.21 21.1504 1662.21 42.0533Z" fill="white" fill-opacity="0.3"/>
<line y1="-1.5" x2="12.8488" y2="-1.5" transform="matrix(0.999903 -0.013912 0.0141168 0.9999 1693.24 32.6104)" stroke="white" stroke-width="3"/>
<line y1="-1.5" x2="12.8488" y2="-1.5" transform="matrix(0.999901 -0.0140514 0.0139767 0.999902 1693.74 43.1868)" stroke="white" stroke-width="3"/>
<line y1="-1.5" x2="12.8488" y2="-1.5" transform="matrix(0.999901 -0.0140514 0.0139767 0.999902 1694.25 53.7632)" stroke="white" stroke-width="3"/>
<line y1="-1.5" x2="12.8489" y2="-1.5" transform="matrix(0.0206086 0.999788 -0.999783 0.020827 1703.82 29.9116)" stroke="white" stroke-width="3"/>
<line y1="-1.5" x2="12.8489" y2="-1.5" transform="matrix(0.0207549 0.999784 -0.999786 0.0206801 1693.74 40.9917)" stroke="white" stroke-width="3"/>
<path d="M1800.64 177.596C1788.66 190.945 1767.97 192.221 1754.43 180.447C1740.9 168.673 1739.64 148.307 1751.63 134.959C1763.61 121.61 1784.3 120.333 1797.83 132.107C1811.37 143.881 1812.63 164.247 1800.64 177.596ZM1754.08 137.091C1743.29 149.104 1744.42 167.434 1756.6 178.03C1768.78 188.627 1787.4 187.478 1798.19 175.464C1808.98 163.45 1807.85 145.121 1795.66 134.524C1783.48 123.928 1764.86 125.077 1754.08 137.091Z" fill="white" fill-opacity="0.3"/>
<path d="M1775.83 147.52L1775.86 164.71" stroke="white" stroke-width="3"/>
<g filter="url(#filter6_f_223_4)">
<line x1="1797.62" y1="125.685" x2="1843.03" y2="84.5798" stroke="white" stroke-width="0.5"/>
</g>
<rect x="1766.67" y="114.256" width="248.48" height="59.9651" rx="29.9825" transform="rotate(33.7036 1766.67 114.256)" stroke="white" stroke-opacity="0.18" stroke-width="5"/>
<rect x="1660.5" y="2.5" width="294.303" height="79.1066" rx="39.5533" stroke="white" stroke-opacity="0.18" stroke-width="5"/>
<g filter="url(#filter7_f_223_4)">
<line x1="1798.16" y1="516.388" x2="1671.16" y2="530.193" stroke="white"/>
</g>
<g filter="url(#filter8_f_223_4)">
<line x1="1739.13" y1="441.162" x2="1660.63" y2="507.801" stroke="white"/>
</g>
<g filter="url(#filter9_f_223_4)">
<line x1="1741.95" y1="399.245" x2="1572.95" y2="364.245" stroke="white" stroke-width="0.5"/>
</g>
<path d="M1738.54 422.346C1738.54 399.734 1756.87 381.403 1779.49 381.403C1802.1 381.403 1820.43 399.734 1820.43 422.346C1820.43 444.958 1802.1 463.289 1779.49 463.289C1756.87 463.289 1738.54 444.958 1738.54 422.346ZM1816.34 422.346C1816.34 401.995 1799.84 385.497 1779.49 385.497C1759.14 385.497 1742.64 401.995 1742.64 422.346C1742.64 442.697 1759.14 459.195 1779.49 459.195C1799.84 459.195 1816.34 442.697 1816.34 422.346Z" fill="white" fill-opacity="0.54"/>
<g filter="url(#filter10_f_223_4)">
<path d="M1644.23 422.064C1644.23 347.209 1704.91 286.527 1779.77 286.527C1854.62 286.527 1915.31 347.209 1915.31 422.064C1915.31 496.918 1854.62 557.6 1779.77 557.6C1704.91 557.6 1644.23 496.918 1644.23 422.064ZM1913.95 422.064C1913.95 347.957 1853.87 287.883 1779.77 287.883C1705.66 287.883 1645.59 347.957 1645.59 422.064C1645.59 496.17 1705.66 556.244 1779.77 556.244C1853.87 556.244 1913.95 496.17 1913.95 422.064Z" fill="#FF7EBA"/>
</g>
<line y1="-1.5" x2="12.5608" y2="-1.5" transform="matrix(0.999783 -0.0208496 0.0219197 0.99976 1772.94 414.005)" stroke="white" stroke-width="3"/>
<line y1="-1.5" x2="12.5608" y2="-1.5" transform="matrix(0.999781 -0.0209298 0.0218336 0.999762 1773.51 423.985)" stroke="white" stroke-width="3"/>
<line y1="-1.5" x2="12.5608" y2="-1.5" transform="matrix(0.999781 -0.0209298 0.0218336 0.999762 1774.07 433.966)" stroke="white" stroke-width="3"/>
<line x1="1784.58" y1="410.769" x2="1785.31" y2="433.354" stroke="white" stroke-width="3"/>
<g filter="url(#filter11_f_223_4)">
<circle cx="1632.33" cy="541.555" r="14.9655" transform="rotate(180 1632.33 541.555)" fill="#FF7EBB"/>
</g>
<g filter="url(#filter12_f_223_4)">
<path d="M1559.19 542.966C1559.19 502.42 1592.06 469.551 1632.61 469.551C1673.15 469.551 1706.02 502.42 1706.02 542.966C1706.02 583.513 1673.15 616.382 1632.61 616.382C1592.06 616.382 1559.19 583.513 1559.19 542.966ZM1702.35 542.966C1702.35 504.447 1671.13 473.222 1632.61 473.222C1594.09 473.222 1562.86 504.447 1562.86 542.966C1562.86 581.485 1594.09 612.711 1632.61 612.711C1671.13 612.711 1702.35 581.485 1702.35 542.966Z" fill="#FF7EBA"/>
</g>
<path d="M1594.21 542.966C1594.21 521.757 1611.4 504.564 1632.61 504.564C1653.82 504.564 1671.01 521.757 1671.01 542.966C1671.01 564.175 1653.82 581.368 1632.61 581.368C1611.4 581.368 1594.21 564.175 1594.21 542.966ZM1667.17 542.966C1667.17 523.878 1651.7 508.404 1632.61 508.404C1613.52 508.404 1598.05 523.878 1598.05 542.966C1598.05 562.054 1613.52 577.528 1632.61 577.528C1651.7 577.528 1667.17 562.054 1667.17 542.966Z" fill="white"/>
<line y1="-1.5" x2="12.5608" y2="-1.5" transform="matrix(-0.999909 0.0134891 -0.0145594 -0.999894 1639.39 551.713)" stroke="white" stroke-width="3"/>
<line y1="-1.5" x2="12.5608" y2="-1.5" transform="matrix(-0.999908 0.0135693 -0.0144732 -0.999895 1638.89 541.729)" stroke="white" stroke-width="3"/>
<line y1="-1.5" x2="12.5608" y2="-1.5" transform="matrix(-0.999908 0.0135693 -0.0144732 -0.999895 1638.4 531.745)" stroke="white" stroke-width="3"/>
<line y1="-1.5" x2="12.1301" y2="-1.5" transform="matrix(-0.0213405 -0.999772 0.999798 -0.0201126 1629.05 554.261)" stroke="white" stroke-width="3"/>
<line y1="-1.5" x2="12.1301" y2="-1.5" transform="matrix(-0.0214921 -0.999769 0.999801 -0.0199708 1638.89 543.802)" stroke="white" stroke-width="3"/>
<g filter="url(#filter13_f_223_4)">
<circle cx="1853.41" cy="506.471" r="14.9655" transform="rotate(180 1853.41 506.471)" fill="#FF7EBB"/>
</g>
<path d="M1812.47 506.471C1812.47 483.859 1830.8 465.528 1853.41 465.528C1876.02 465.528 1894.36 483.859 1894.36 506.471C1894.36 529.084 1876.02 547.415 1853.41 547.415C1830.8 547.415 1812.47 529.084 1812.47 506.471ZM1890.26 506.471C1890.26 486.12 1873.76 469.622 1853.41 469.622C1833.06 469.622 1816.56 486.12 1816.56 506.471C1816.56 526.822 1833.06 543.32 1853.41 543.32C1873.76 543.32 1890.26 526.822 1890.26 506.471Z" fill="white"/>
<path d="M1804 506.471C1804 479.18 1826.12 457.057 1853.41 457.057C1880.7 457.057 1902.83 479.18 1902.83 506.471C1902.83 533.762 1880.7 555.885 1853.41 555.885C1826.12 555.885 1804 533.762 1804 506.471ZM1897.88 506.471C1897.88 481.91 1877.97 461.998 1853.41 461.998C1828.85 461.998 1808.94 481.91 1808.94 506.471C1808.94 531.033 1828.85 550.944 1853.41 550.944C1877.97 550.944 1897.88 531.033 1897.88 506.471Z" fill="#FF7EBB"/>
<path d="M1853.69 521.437L1853.69 493.789" stroke="white" stroke-width="3"/>
<defs>
<filter id="filter0_f_223_4" x="-72" y="14.0688" width="269.413" height="270.05" filterUnits="userSpaceOnUse" color-interpolation-filters="sRGB">
<feFlood flood-opacity="0" result="BackgroundImageFix"/>
<feBlend mode="normal" in="SourceGraphic" in2="BackgroundImageFix" result="shape"/>
<feGaussianBlur stdDeviation="11.5" result="effect1_foregroundBlur_223_4"/>
</filter>
<filter id="filter1_f_223_4" x="-23.7083" y="62.3606" width="172.193" height="173.467" filterUnits="userSpaceOnUse" color-interpolation-filters="sRGB">
<feFlood flood-opacity="0" result="BackgroundImageFix"/>
<feBlend mode="normal" in="SourceGraphic" in2="BackgroundImageFix" result="shape"/>
<feGaussianBlur stdDeviation="30" result="effect1_foregroundBlur_223_4"/>
</filter>
<filter id="filter2_f_223_4" x="7.38843" y="154.562" width="406.612" height="407.248" filterUnits="userSpaceOnUse" color-interpolation-filters="sRGB">
<feFlood flood-opacity="0" result="BackgroundImageFix"/>
<feBlend mode="normal" in="SourceGraphic" in2="BackgroundImageFix" result="shape"/>
<feGaussianBlur stdDeviation="27.5" result="effect1_foregroundBlur_223_4"/>
</filter>
<filter id="filter3_f_223_4" x="127.144" y="268.588" width="172.83" height="172.193" filterUnits="userSpaceOnUse" color-interpolation-filters="sRGB">
<feFlood flood-opacity="0" result="BackgroundImageFix"/>
<feBlend mode="normal" in="SourceGraphic" in2="BackgroundImageFix" result="shape"/>
<feGaussianBlur stdDeviation="30" result="effect1_foregroundBlur_223_4"/>
</filter>
<filter id="filter4_f_223_4" x="87.8718" y="194.9" width="91.2239" height="123.781" filterUnits="userSpaceOnUse" color-interpolation-filters="sRGB">
<feFlood flood-opacity="0" result="BackgroundImageFix"/>
<feBlend mode="normal" in="SourceGraphic" in2="BackgroundImageFix" result="shape"/>
<feGaussianBlur stdDeviation="2" result="effect1_foregroundBlur_223_4"/>
</filter>
<filter id="filter5_f_223_4" x="117.913" y="160.302" width="164.231" height="31.6985" filterUnits="userSpaceOnUse" color-interpolation-filters="sRGB">
<feFlood flood-opacity="0" result="BackgroundImageFix"/>
<feBlend mode="normal" in="SourceGraphic" in2="BackgroundImageFix" result="shape"/>
<feGaussianBlur stdDeviation="2" result="effect1_foregroundBlur_223_4"/>
</filter>
<filter id="filter6_f_223_4" x="1792.46" y="79.3945" width="55.7466" height="51.4753" filterUnits="userSpaceOnUse" color-interpolation-filters="sRGB">
<feFlood flood-opacity="0" result="BackgroundImageFix"/>
<feBlend mode="normal" in="SourceGraphic" in2="BackgroundImageFix" result="shape"/>
<feGaussianBlur stdDeviation="2.5" result="effect1_foregroundBlur_223_4"/>
</filter>
<filter id="filter7_f_223_4" x="1667.11" y="511.891" width="135.101" height="22.7991" filterUnits="userSpaceOnUse" color-interpolation-filters="sRGB">
<feFlood flood-opacity="0" result="BackgroundImageFix"/>
<feBlend mode="normal" in="SourceGraphic" in2="BackgroundImageFix" result="shape"/>
<feGaussianBlur stdDeviation="2" result="effect1_foregroundBlur_223_4"/>
</filter>
<filter id="filter8_f_223_4" x="1656.31" y="436.781" width="87.1453" height="75.4011" filterUnits="userSpaceOnUse" color-interpolation-filters="sRGB">
<feFlood flood-opacity="0" result="BackgroundImageFix"/>
<feBlend mode="normal" in="SourceGraphic" in2="BackgroundImageFix" result="shape"/>
<feGaussianBlur stdDeviation="2" result="effect1_foregroundBlur_223_4"/>
</filter>
<filter id="filter9_f_223_4" x="1567.9" y="359" width="179.101" height="45.4895" filterUnits="userSpaceOnUse" color-interpolation-filters="sRGB">
<feFlood flood-opacity="0" result="BackgroundImageFix"/>
<feBlend mode="normal" in="SourceGraphic" in2="BackgroundImageFix" result="shape"/>
<feGaussianBlur stdDeviation="2.5" result="effect1_foregroundBlur_223_4"/>
</filter>
<filter id="filter10_f_223_4" x="1634.23" y="276.527" width="291.073" height="291.073" filterUnits="userSpaceOnUse" color-interpolation-filters="sRGB">
<feFlood flood-opacity="0" result="BackgroundImageFix"/>
<feBlend mode="normal" in="SourceGraphic" in2="BackgroundImageFix" result="shape"/>
<feGaussianBlur stdDeviation="5" result="effect1_foregroundBlur_223_4"/>
</filter>
<filter id="filter11_f_223_4" x="1542.36" y="451.589" width="179.931" height="179.931" filterUnits="userSpaceOnUse" color-interpolation-filters="sRGB">
<feFlood flood-opacity="0" result="BackgroundImageFix"/>
<feBlend mode="normal" in="SourceGraphic" in2="BackgroundImageFix" result="shape"/>
<feGaussianBlur stdDeviation="37.5" result="effect1_foregroundBlur_223_4"/>
</filter>
<filter id="filter12_f_223_4" x="1549.19" y="459.551" width="166.831" height="166.831" filterUnits="userSpaceOnUse" color-interpolation-filters="sRGB">
<feFlood flood-opacity="0" result="BackgroundImageFix"/>
<feBlend mode="normal" in="SourceGraphic" in2="BackgroundImageFix" result="shape"/>
<feGaussianBlur stdDeviation="5" result="effect1_foregroundBlur_223_4"/>
</filter>
<filter id="filter13_f_223_4" x="1777.45" y="430.506" width="151.931" height="151.931" filterUnits="userSpaceOnUse" color-interpolation-filters="sRGB">
<feFlood flood-opacity="0" result="BackgroundImageFix"/>
<feBlend mode="normal" in="SourceGraphic" in2="BackgroundImageFix" result="shape"/>
<feGaussianBlur stdDeviation="30.5" result="effect1_foregroundBlur_223_4"/>
</filter>
</defs>
</svg>
