<svg width="60" height="60" viewBox="0 0 60 60" fill="none" xmlns="http://www.w3.org/2000/svg">
<path d="M19.245 25.905C18.7666 25.3483 18.1683 24.9073 17.495 24.615C16.7925 24.3 15.97 24.1425 15.025 24.1425C14.08 24.1425 13.265 24.3 12.57 24.615C11.875 24.93 11.295 25.36 10.84 25.905C10.3705 26.4768 10.0195 27.1362 9.8075 27.845C9.5775 28.595 9.46 29.395 9.46 30.2475C9.46 31.1 9.5775 31.8925 9.81 32.6275C10.04 33.36 10.385 34 10.84 34.545C11.2975 35.0925 11.8725 35.52 12.57 35.825C13.265 36.13 14.0825 36.285 15.025 36.285C15.9675 36.285 16.7925 36.13 17.495 35.825C18.1975 35.5175 18.7825 35.0925 19.245 34.545C19.71 34 20.0525 33.36 20.2775 32.6275C20.5025 31.8925 20.615 31.1025 20.615 30.2475C20.6202 29.4353 20.5065 28.6268 20.2775 27.8475C20.0723 27.1352 19.7206 26.4736 19.245 25.905ZM16.8325 32.93C16.465 33.55 15.865 33.86 15.025 33.86C14.2025 33.86 13.6075 33.55 13.2425 32.93C12.875 32.3075 12.6925 31.415 12.6925 30.2475C12.6925 29.08 12.875 28.1875 13.2425 27.565C13.6075 26.945 14.2025 26.635 15.025 26.635C15.865 26.635 16.465 26.945 16.8325 27.565C17.2 28.1875 17.3825 29.08 17.3825 30.2475C17.3825 31.415 17.2 32.3075 16.8325 32.93ZM46.5575 30.855L46.3325 19.88C46.9032 19.7912 47.4799 19.746 48.0575 19.745C48.6425 19.745 49.2275 19.79 49.81 19.88L49.585 30.855C49.06 30.9425 48.56 30.9875 48.0825 30.9875C47.5712 30.9872 47.0609 30.942 46.5575 30.8525V30.855ZM49.855 34.355C49.855 34.9075 49.81 35.4625 49.72 36.015C49.1785 36.1027 48.631 36.1478 48.0825 36.15C47.5264 36.1497 46.9713 36.1045 46.4225 36.015C46.3336 35.4737 46.2885 34.9261 46.2875 34.3775C46.2875 33.8375 46.3325 33.285 46.4225 32.715C46.9638 32.6261 47.5114 32.581 48.06 32.58C48.5975 32.58 49.1525 32.625 49.72 32.715C49.81 33.285 49.855 33.83 49.855 34.355ZM41.7975 24.28C42.3225 24.28 42.8525 24.3225 43.3925 24.4125V35.565C42.9125 35.73 42.28 35.89 41.495 36.0475C39.9584 36.3444 38.381 36.3639 36.8375 36.105C36.1695 35.9998 35.5356 35.7386 34.9875 35.3425C34.455 34.9525 34.0325 34.385 33.72 33.635C33.405 32.8875 33.2475 31.8925 33.2475 30.6525V24.4125C33.7745 24.3236 34.308 24.2784 34.8425 24.2775C35.365 24.2775 35.895 24.3225 36.435 24.4125V30.5625C36.435 31.175 36.485 31.68 36.58 32.0775C36.6527 32.423 36.807 32.7462 37.03 33.02C37.2297 33.2503 37.4893 33.4208 37.78 33.5125C38.08 33.61 38.43 33.6575 38.835 33.6575C39.39 33.6575 39.8525 33.6075 40.2275 33.5025V24.4125C40.7462 24.3244 41.2713 24.2792 41.7975 24.2775V24.28ZM30.8925 30.9875C31.0275 31.3625 31.0925 31.8175 31.0925 32.3575C31.0964 32.8958 30.9762 33.4277 30.7412 33.912C30.5062 34.3963 30.1628 34.82 29.7375 35.15C29.2575 35.5227 28.7136 35.8048 28.1325 35.9825C27.5025 36.1825 26.7925 36.2825 26 36.2825C25.6705 36.284 25.3411 36.2731 25.0125 36.25C24.7223 36.2286 24.4335 36.1911 24.1475 36.1375C23.8725 36.0855 23.5998 36.0221 23.33 35.9475C23.034 35.8646 22.742 35.7678 22.455 35.6575C22.4862 35.2433 22.5573 34.833 22.6675 34.4325C22.7798 34.0211 22.9261 33.6197 23.105 33.2325C23.6 33.4275 24.065 33.5725 24.5075 33.67C24.9475 33.77 25.4075 33.8175 25.8875 33.8175C26.0975 33.8175 26.325 33.7975 26.5725 33.76C26.8093 33.7266 27.04 33.6592 27.2575 33.56C27.4566 33.4693 27.6352 33.3392 27.7825 33.1775C27.9306 33.0068 28.0075 32.7858 27.9975 32.56C27.9975 32.2 27.8875 31.9425 27.6725 31.785C27.3932 31.5991 27.086 31.459 26.7625 31.37L25.3725 30.965C24.5325 30.7275 23.88 30.3725 23.4075 29.9C22.935 29.4275 22.7 28.7225 22.7 27.78C22.7 26.6425 23.1075 25.7525 23.925 25.11C24.74 24.465 25.85 24.145 27.255 24.145C27.84 24.145 28.415 24.195 28.985 24.3C29.5727 24.4103 30.1505 24.5683 30.7125 24.7725C30.6784 25.1832 30.6031 25.5894 30.4875 25.985C30.3834 26.3651 30.241 26.7336 30.0625 27.085C29.6756 26.9257 29.2779 26.7937 28.8725 26.69C28.4248 26.5763 27.9644 26.5201 27.5025 26.5225C26.995 26.5225 26.5975 26.6 26.3125 26.7575C26.1768 26.8288 26.0646 26.9377 25.9892 27.0712C25.9139 27.2046 25.8785 27.357 25.8875 27.51C25.8875 27.84 25.9875 28.07 26.19 28.205C26.3925 28.34 26.68 28.4675 27.055 28.5875L28.3325 28.97C28.7525 29.09 29.1325 29.235 29.4675 29.4075C29.8025 29.5775 30.0925 29.7925 30.33 30.045C30.57 30.3 30.7575 30.615 30.8925 30.9875ZM30 0C13.4325 0 0 13.4325 0 30C0 46.5675 13.4325 60 30 60C46.57 60 60 46.5675 60 30C60 13.4325 46.57 0 30 0ZM30 57C15.0875 57 3 44.9125 3 30C3 15.0875 15.0875 3 30 3C44.9125 3 57 15.0875 57 30C57 44.9125 44.9125 57 30 57Z" fill="#F8F8F8"/>
</svg>
